<svg xmlns="http://www.w3.org/2000/svg" width="16" height="16" viewBox="0 0 16 16">
  <path fill-rule="evenodd" d="M0.489271273,6.88853127 L15.3257802,1.37137378 C15.532841,1.29437538 15.7631166,1.39981184 15.8401149,1.6068727 C15.8661122,1.67678349 15.8720444,1.75257059 15.8572416,1.825675 L13.3928789,13.996047 C13.3161541,14.3749564 12.9467895,14.6199253 12.5678801,14.5432005 C12.4650107,14.5223706 12.3681421,14.4786748 12.284443,14.4153467 L8.81956352,11.7937644 C8.65016898,11.6655978 8.41013753,11.6921881 8.27290206,11.8543226 L6.77636634,13.6223796 C6.56227927,13.8753092 6.18368748,13.9067972 5.93075792,13.6927102 C5.85400356,13.627743 5.7948087,13.5445267 5.7586131,13.4507086 L4.17046654,9.33427073 C4.10705928,9.16992064 3.97463153,9.04173819 3.8083034,8.98371763 L0.498859843,7.8292782 C0.238125731,7.73832583 0.100490436,7.4532276 0.191442808,7.19249349 C0.2404955,7.05187363 0.349680459,6.94044001 0.489271273,6.88853127 Z M13.1215457,3.48345691 L5.48658997,8.43343921 C5.29475806,8.55780988 5.21171698,8.79645269 5.28490405,9.01304262 L6.39189409,12.2890707 C6.40957406,12.3413928 6.46632195,12.3694758 6.51864406,12.3517959 C6.55582449,12.3392324 6.58221889,12.3060819 6.58613306,12.2670318 L6.84374655,9.69693088 C6.8563781,9.57091126 6.91636245,9.4543808 7.01158469,9.37087495 L13.362214,3.80164284 C13.4452607,3.7288144 13.4535443,3.60245263 13.3807158,3.51940591 C13.315234,3.44473663 13.2048788,3.42942946 13.1215457,3.48345691 Z"/>
</svg>
